<svg width="134" height="22" viewBox="0 0 134 22" fill="none" xmlns="http://www.w3.org/2000/svg">
<rect width="134" height="22" fill="#E7C652"/>
<path d="M21.92 7.3V15H20.49V11.7H16.508V15H15.078V7.3H16.508V10.479H20.49V7.3H21.92ZM29.855 13.801V15H24.08V7.3H29.701V8.499H25.51V10.501H29.228V11.678H25.51V13.801H29.855ZM39.0831 13.79V16.639H37.7631V15H31.8561V16.639H30.5251L30.5361 13.79H30.8661C31.3501 13.768 31.6874 13.4123 31.8781 12.723C32.0761 12.0263 32.1971 11.0327 32.2411 9.742L32.3291 7.3H37.9721V13.79H39.0831ZM33.4951 9.874C33.4584 10.8713 33.3778 11.7037 33.2531 12.371C33.1284 13.031 32.9304 13.504 32.6591 13.79H36.5641V8.51H33.5501L33.4951 9.874ZM45.5006 10.996C45.9919 11.128 46.3659 11.3553 46.6226 11.678C46.8792 11.9933 47.0076 12.3893 47.0076 12.866C47.0076 13.5407 46.7582 14.065 46.2596 14.439C45.7609 14.813 45.0386 15 44.0926 15H40.4406V7.3H43.8836C44.7489 7.3 45.4236 7.47233 45.9076 7.817C46.3916 8.16167 46.6336 8.64933 46.6336 9.28C46.6336 9.68333 46.5346 10.0317 46.3366 10.325C46.1459 10.6183 45.8672 10.842 45.5006 10.996ZM41.8486 10.589H43.7626C44.2246 10.589 44.5766 10.4973 44.8186 10.314C45.0606 10.1307 45.1816 9.85933 45.1816 9.5C45.1816 9.14067 45.0606 8.86933 44.8186 8.686C44.5766 8.49533 44.2246 8.4 43.7626 8.4H41.8486V10.589ZM44.0486 13.9C45.0606 13.9 45.5666 13.5187 45.5666 12.756C45.5666 12.008 45.0606 11.634 44.0486 11.634H41.8486V13.9H44.0486ZM48.6476 7.3H50.0556V12.767L54.1916 7.3H55.5226V15H54.1146V9.544L49.9786 15H48.6476V7.3ZM64.4135 11.755H63.0935V15H61.6965V11.755H60.3765L58.4295 15H56.7795L59.1995 10.985L56.9445 7.3H58.4625L60.3435 10.523H61.6965V7.3H63.0935V10.523H64.4245L66.3165 7.3H67.8345L65.5905 10.996L67.9995 15H66.3495L64.4135 11.755ZM69.004 7.3H70.412V12.767L74.548 7.3H75.879V15H74.471V9.544L70.335 15H69.004V7.3ZM85.111 15L85.1 9.896L82.57 14.12H81.932L79.402 9.962V15H78.049V7.3H79.226L82.273 12.393L85.287 7.3H86.453L86.475 15H85.111ZM92.1938 15.11C91.4091 15.11 90.7014 14.9413 90.0708 14.604C89.4401 14.2593 88.9451 13.7863 88.5858 13.185C88.2264 12.5763 88.0468 11.898 88.0468 11.15C88.0468 10.402 88.2264 9.72733 88.5858 9.126C88.9451 8.51733 89.4401 8.04433 90.0708 7.707C90.7014 7.36233 91.4091 7.19 92.1938 7.19C92.9784 7.19 93.6861 7.36233 94.3168 7.707C94.9474 8.04433 95.4424 8.51367 95.8018 9.115C96.1611 9.71633 96.3408 10.3947 96.3408 11.15C96.3408 11.9053 96.1611 12.5837 95.8018 13.185C95.4424 13.7863 94.9474 14.2593 94.3168 14.604C93.6861 14.9413 92.9784 15.11 92.1938 15.11ZM92.1938 13.856C92.7071 13.856 93.1691 13.7423 93.5798 13.515C93.9904 13.2803 94.3131 12.9577 94.5478 12.547C94.7824 12.129 94.8998 11.6633 94.8998 11.15C94.8998 10.6367 94.7824 10.1747 94.5478 9.764C94.3131 9.346 93.9904 9.02333 93.5798 8.796C93.1691 8.56133 92.7071 8.444 92.1938 8.444C91.6804 8.444 91.2184 8.56133 90.8078 8.796C90.3971 9.02333 90.0744 9.346 89.8398 9.764C89.6051 10.1747 89.4878 10.6367 89.4878 11.15C89.4878 11.6633 89.6051 12.129 89.8398 12.547C90.0744 12.9577 90.3971 13.2803 90.8078 13.515C91.2184 13.7423 91.6804 13.856 92.1938 13.856ZM101.464 15.11C100.686 15.11 99.9824 14.9413 99.3518 14.604C98.7284 14.2593 98.2371 13.7863 97.8778 13.185C97.5258 12.5837 97.3498 11.9053 97.3498 11.15C97.3498 10.3947 97.5294 9.71633 97.8888 9.115C98.2481 8.51367 98.7394 8.04433 99.3628 7.707C99.9934 7.36233 100.697 7.19 101.475 7.19C102.105 7.19 102.681 7.3 103.202 7.52C103.722 7.74 104.162 8.059 104.522 8.477L103.598 9.346C103.04 8.74467 102.355 8.444 101.541 8.444C101.013 8.444 100.54 8.56133 100.122 8.796C99.7038 9.02333 99.3774 9.34233 99.1428 9.753C98.9081 10.1637 98.7908 10.6293 98.7908 11.15C98.7908 11.6707 98.9081 12.1363 99.1428 12.547C99.3774 12.9577 99.7038 13.2803 100.122 13.515C100.54 13.7423 101.013 13.856 101.541 13.856C102.355 13.856 103.04 13.5517 103.598 12.943L104.522 13.823C104.162 14.241 103.719 14.56 103.191 14.78C102.67 15 102.094 15.11 101.464 15.11ZM111.352 8.51H108.8V15H107.381V8.51H104.84V7.3H111.352V8.51ZM116.138 9.907C117.062 9.907 117.77 10.116 118.261 10.534C118.76 10.9447 119.009 11.557 119.009 12.371C119.009 13.2217 118.738 13.8743 118.195 14.329C117.652 14.7763 116.89 15 115.907 15H112.596V7.3H114.004V9.907H116.138ZM115.841 13.9C116.398 13.9 116.827 13.7717 117.128 13.515C117.429 13.2583 117.579 12.8843 117.579 12.393C117.579 11.4617 117 10.996 115.841 10.996H114.004V13.9H115.841Z" fill="white"/>
</svg>
