<svg width="17" height="17" viewBox="0 0 17 17" fill="none" xmlns="http://www.w3.org/2000/svg">
<path d="M11.7633 10.0878C13.804 7.2062 13.1215 3.21603 10.2399 1.17585C7.3583 -0.864329 3.36813 -0.182319 1.32795 2.69977C-0.71223 5.58137 -0.0302199 9.57105 2.85187 11.6112C4.90862 13.0674 7.62789 13.1795 9.79725 11.8984L14.5109 16.5837C15.0198 17.1195 15.8666 17.1409 16.4024 16.632C16.9381 16.1235 16.9596 15.2767 16.4511 14.741C16.435 14.7239 16.4194 14.7083 16.4024 14.6922L11.7633 10.0878ZM6.54174 10.5246C4.26464 10.5251 2.41848 8.68039 2.41702 6.40329C2.41653 4.12619 4.26123 2.28003 6.53882 2.27906C8.81299 2.27808 10.6582 4.11985 10.6626 6.39403C10.6665 8.67162 8.82274 10.5207 6.54467 10.5246C6.54369 10.5246 6.5432 10.5246 6.54174 10.5246Z" fill="white"/>
</svg>
