<svg width="92" height="22" viewBox="0 0 92 22" fill="none" xmlns="http://www.w3.org/2000/svg">
<rect width="92" height="22" fill="#68E082"/>
<path d="M23.878 11.139C23.878 12.151 23.526 12.9503 22.822 13.537C22.118 14.1237 21.117 14.4427 19.819 14.494V15.308H18.499V14.494C17.201 14.428 16.1963 14.1053 15.485 13.526C14.781 12.9467 14.429 12.151 14.429 11.139C14.429 10.127 14.781 9.33133 15.485 8.752C16.1963 8.16533 17.201 7.839 18.499 7.773V6.992H19.819V7.773C21.117 7.839 22.118 8.16533 22.822 8.752C23.526 9.33133 23.878 10.127 23.878 11.139ZM19.819 13.372C20.699 13.306 21.3663 13.086 21.821 12.712C22.2757 12.3307 22.503 11.8027 22.503 11.128C22.503 10.4533 22.272 9.929 21.81 9.555C21.3553 9.181 20.6917 8.96467 19.819 8.906V13.372ZM15.826 11.139C15.826 11.8063 16.0533 12.327 16.508 12.701C16.97 13.075 17.6337 13.2987 18.499 13.372V8.906C16.717 9.038 15.826 9.78233 15.826 11.139ZM25.3908 7.3H26.7988V12.767L30.9348 7.3H32.2658V15H30.8578V9.544L26.7218 15H25.3908V7.3ZM41.2667 7.3V15H39.8367V11.7H35.8547V15H34.4247V7.3H35.8547V10.479H39.8367V7.3H41.2667ZM48.5306 13.218H44.6806L43.9216 15H42.4476L45.9126 7.3H47.3206L50.7966 15H49.3006L48.5306 13.218ZM48.0576 12.096L46.6056 8.73L45.1646 12.096H48.0576ZM58.8194 7.3V15H57.3894V11.7H53.4074V15H51.9774V7.3H53.4074V10.479H57.3894V7.3H58.8194ZM64.5214 15.11C63.744 15.11 63.04 14.9413 62.4094 14.604C61.786 14.2593 61.2947 13.7863 60.9354 13.185C60.5834 12.5837 60.4074 11.9053 60.4074 11.15C60.4074 10.3947 60.587 9.71633 60.9464 9.115C61.3057 8.51367 61.797 8.04433 62.4204 7.707C63.051 7.36233 63.755 7.19 64.5324 7.19C65.163 7.19 65.7387 7.3 66.2594 7.52C66.78 7.74 67.22 8.059 67.5794 8.477L66.6554 9.346C66.098 8.74467 65.4124 8.444 64.5984 8.444C64.0704 8.444 63.5974 8.56133 63.1794 8.796C62.7614 9.02333 62.435 9.34233 62.2004 9.753C61.9657 10.1637 61.8484 10.6293 61.8484 11.15C61.8484 11.6707 61.9657 12.1363 62.2004 12.547C62.435 12.9577 62.7614 13.2803 63.1794 13.515C63.5974 13.7423 64.0704 13.856 64.5984 13.856C65.4124 13.856 66.098 13.5517 66.6554 12.943L67.5794 13.823C67.22 14.241 66.7764 14.56 66.2484 14.78C65.7277 15 65.152 15.11 64.5214 15.11ZM72.4601 9.907C73.3841 9.907 74.0918 10.116 74.5831 10.534C75.0818 10.9447 75.3311 11.557 75.3311 12.371C75.3311 13.2217 75.0598 13.8743 74.5171 14.329C73.9744 14.7763 73.2118 15 72.2291 15H68.9181V7.3H70.3261V9.907H72.4601ZM72.1631 13.9C72.7204 13.9 73.1494 13.7717 73.4501 13.515C73.7508 13.2583 73.9011 12.8843 73.9011 12.393C73.9011 11.4617 73.3218 10.996 72.1631 10.996H70.3261V13.9H72.1631ZM76.4421 7.3H77.8501V15H76.4421V7.3Z" fill="white"/>
</svg>
