<svg width="27" height="23" viewBox="0 0 27 23" fill="none" xmlns="http://www.w3.org/2000/svg">
<path d="M2.14192 2.25085C3.53959 0.799395 5.45739 0 7.54246 0C9.10101 0 10.5283 0.471787 11.7849 1.40215C12.4189 1.87176 12.9935 2.44631 13.5 3.11691C14.0063 2.44651 14.5811 1.87176 15.2153 1.40215C16.4717 0.471787 17.899 0 19.4575 0C21.5426 0 23.4606 0.799395 24.8583 2.25085C26.2393 3.68534 27 5.64507 27 7.76929C27 9.95565 26.149 11.957 24.3221 14.0678C22.6877 15.9559 20.3388 17.8727 17.6186 20.0922C16.6898 20.8501 15.637 21.7093 14.5438 22.6245C14.255 22.8667 13.8844 23 13.5 23C13.1158 23 12.745 22.8667 12.4566 22.6249C11.3634 21.7095 10.31 20.8499 9.38074 20.0916C6.66101 17.8725 4.31207 15.9559 2.67771 14.0676C0.850754 11.957 0 9.95565 0 7.7691C0 5.64507 0.760735 3.68534 2.14192 2.25085Z" fill="#FF1850"/>
</svg>
