<svg width="41" height="44" viewBox="0 0 41 44" fill="none" xmlns="http://www.w3.org/2000/svg">
<path d="M36.775 21.4851H4.13495C1.85481 21.4851 0 23.3399 0 25.6201V39.8652C0 42.145 1.85481 43.9998 4.13495 43.9998H36.775C39.0552 43.9998 40.91 42.145 40.91 39.8652V25.6201C40.91 23.3399 39.0552 21.4851 36.775 21.4851ZM38.4335 39.8652C38.4335 40.7794 37.6896 41.5233 36.775 41.5233H4.13495C3.22044 41.5233 2.47652 40.7794 2.47652 39.8652V25.6201C2.47652 24.7056 3.22044 23.9616 4.13495 23.9616H36.775C37.6896 23.9616 38.4335 24.7056 38.4335 25.6201V39.8652Z" fill="white"/>
<path d="M20.4584 14.1516C21.4422 14.1516 22.426 13.7779 23.1751 13.0301C23.9016 12.3052 24.3015 11.341 24.3015 10.3153C24.3015 9.28952 23.9016 8.32535 23.1751 7.60045C21.677 6.10519 19.2395 6.10519 17.7413 7.60045C17.0148 8.32535 16.6149 9.28952 16.6149 10.3153C16.6149 11.341 17.0148 12.3052 17.7413 13.0301C18.4904 13.7779 19.4742 14.1516 20.4584 14.1516ZM19.4907 9.35304C19.7577 9.08669 20.1079 8.95383 20.4584 8.95383C20.8086 8.95383 21.1588 9.08701 21.4254 9.35304C21.6831 9.61005 21.825 9.95186 21.825 10.3153C21.825 10.6787 21.6831 11.0202 21.4258 11.2775C20.8921 11.8099 20.0243 11.8096 19.4907 11.2775C19.233 11.0202 19.0915 10.6787 19.0915 10.3153C19.0915 9.95186 19.2333 9.61037 19.4907 9.35304Z" fill="white"/>
<path d="M24.9829 15.7298C25.2247 15.9723 25.5421 16.0935 25.8594 16.0935C26.176 16.0935 26.4924 15.9729 26.7342 15.7317C28.1837 14.2848 28.9821 12.3613 28.9821 10.315C28.9821 8.26861 28.1837 6.34479 26.7342 4.89822C26.2502 4.41517 25.466 4.41582 24.9829 4.89983C24.4998 5.38385 24.5008 6.16808 24.9848 6.65113C25.9654 7.62981 26.5056 8.93095 26.5056 10.315C26.5056 11.6987 25.9654 13.0001 24.9848 13.9788C24.5008 14.4619 24.4998 15.2458 24.9829 15.7298Z" fill="white"/>
<path d="M14.1758 15.7318C14.4177 15.973 14.734 16.0936 15.0507 16.0936C15.368 16.0936 15.6853 15.9723 15.9271 15.7298C16.4102 15.2458 16.4092 14.4619 15.9252 13.9788C14.9446 12.9998 14.4044 11.6987 14.4044 10.3147C14.4044 8.93099 14.9446 7.62985 15.9252 6.65085C16.4092 6.1678 16.4102 5.38389 15.9271 4.89987C15.4441 4.41553 14.6598 4.41489 14.1758 4.89794C12.7263 6.34483 11.9282 8.26833 11.9279 10.3147C11.9279 12.361 12.7263 14.2849 14.1758 15.7318Z" fill="white"/>
<path d="M10.7639 36.5682H7.4399V27.6782C7.4399 26.9943 6.88559 26.4399 6.20164 26.4399C5.51769 26.4399 4.96338 26.9943 4.96338 27.6782V37.8065C4.96338 38.4904 5.51769 39.0447 6.20164 39.0447H10.7639C11.4475 39.0447 12.0021 38.4904 12.0021 37.8065C12.0021 37.1228 11.4475 36.5682 10.7639 36.5682Z" fill="#FF1850"/>
<path d="M14.6001 26.4399C13.9162 26.4399 13.3619 26.9943 13.3619 27.6782V37.8065C13.3619 38.4904 13.9162 39.0447 14.6001 39.0447C15.2838 39.0447 15.8384 38.4904 15.8384 37.8065V27.6782C15.8384 26.9943 15.2838 26.4399 14.6001 26.4399Z" fill="#FF1850"/>
<path d="M25.4292 26.4931C24.7749 26.2955 24.0835 26.666 23.8859 27.3206L22.0136 33.5225L20.1411 27.3206C19.9434 26.6657 19.2524 26.2955 18.5978 26.4931C17.9432 26.6908 17.5727 27.3819 17.7703 28.0365L20.8283 38.1647C20.8286 38.1657 20.8289 38.1667 20.8292 38.1676C21.1662 39.2459 22.8263 39.3114 23.1981 38.1676C23.1984 38.1667 23.1987 38.166 23.199 38.1647L26.2569 28.0365C26.4546 27.3815 26.0838 26.6908 25.4292 26.4931Z" fill="#FF1850"/>
<path d="M34.7083 28.9165C35.3923 28.9165 35.9466 28.3621 35.9466 27.6782C35.9466 26.9943 35.3923 26.4399 34.7083 26.4399H29.1223C28.4383 26.4399 27.884 26.9943 27.884 27.6782V37.8065C27.884 38.4904 28.4383 39.0447 29.1223 39.0447H34.5416C35.2256 39.0447 35.7799 38.4904 35.7799 37.8065C35.7799 37.1228 35.2256 36.5682 34.5416 36.5682H30.3606V33.3429H33.8744C34.5584 33.3429 35.1127 32.7886 35.1127 32.1047C35.1127 31.4207 34.5584 30.8664 33.8744 30.8664H30.3606V28.9165H34.7083Z" fill="#FF1850"/>
<path d="M30.8195 10.3155C30.8195 13.0764 29.7421 15.6726 27.7857 17.6251C27.3017 18.1081 27.3008 18.8924 27.7838 19.3764C28.026 19.6186 28.343 19.7398 28.6603 19.7398C28.9769 19.7398 29.2933 19.6192 29.5351 19.378C31.9604 16.9576 33.296 13.7391 33.296 10.3155C33.296 6.8922 31.9604 3.67337 29.5351 1.25296C29.0511 0.769908 28.2672 0.770553 27.7838 1.25457C27.3008 1.73859 27.3017 2.52282 27.7857 3.00587C29.7421 4.95839 30.8195 7.55422 30.8195 10.3155Z" fill="white"/>
<path d="M12.2498 19.7396C12.5671 19.7396 12.8844 19.6184 13.1262 19.3762C13.6093 18.8922 13.6086 18.1079 13.1243 17.6249C11.1679 15.6724 10.0905 13.0762 10.0905 10.3149C10.0905 7.55402 11.1679 4.95786 13.1243 3.00534C13.6083 2.52229 13.6093 1.73806 13.1262 1.25436C12.6428 0.770024 11.8589 0.769379 11.3749 1.25243C8.94966 3.67317 7.61401 6.89168 7.61401 10.3149C7.61401 13.7385 8.94966 16.9571 11.3749 19.3778C11.6168 19.619 11.9331 19.7396 12.2498 19.7396Z" fill="white"/>
</svg>
