<svg width="240" height="49" viewBox="0 0 240 49" fill="none" xmlns="http://www.w3.org/2000/svg">
<rect width="240" height="49" fill="#FF1850"/>
<path d="M37.908 29.14C36.9093 29.14 36.0087 28.9253 35.206 28.496C34.4033 28.0573 33.7733 27.4553 33.316 26.69C32.8587 25.9153 32.63 25.052 32.63 24.1C32.63 23.148 32.8587 22.2893 33.316 21.524C33.7733 20.7493 34.4033 20.1473 35.206 19.718C36.0087 19.2793 36.9093 19.06 37.908 19.06C38.9067 19.06 39.8073 19.2793 40.61 19.718C41.4127 20.1473 42.0427 20.7447 42.5 21.51C42.9573 22.2753 43.186 23.1387 43.186 24.1C43.186 25.0613 42.9573 25.9247 42.5 26.69C42.0427 27.4553 41.4127 28.0573 40.61 28.496C39.8073 28.9253 38.9067 29.14 37.908 29.14ZM37.908 27.544C38.5613 27.544 39.1493 27.3993 39.672 27.11C40.1947 26.8113 40.6053 26.4007 40.904 25.878C41.2027 25.346 41.352 24.7533 41.352 24.1C41.352 23.4467 41.2027 22.8587 40.904 22.336C40.6053 21.804 40.1947 21.3933 39.672 21.104C39.1493 20.8053 38.5613 20.656 37.908 20.656C37.2547 20.656 36.6667 20.8053 36.144 21.104C35.6213 21.3933 35.2107 21.804 34.912 22.336C34.6133 22.8587 34.464 23.4467 34.464 24.1C34.464 24.7533 34.6133 25.346 34.912 25.878C35.2107 26.4007 35.6213 26.8113 36.144 27.11C36.6667 27.3993 37.2547 27.544 37.908 27.544ZM48.4042 29.098C47.6295 29.098 46.9342 28.9347 46.3182 28.608C45.7022 28.2813 45.2215 27.8287 44.8762 27.25C44.5308 26.662 44.3582 25.9993 44.3582 25.262C44.3582 24.5247 44.5308 23.8667 44.8762 23.288C45.2215 22.7093 45.6975 22.2567 46.3042 21.93C46.9202 21.6033 47.6202 21.44 48.4042 21.44C49.1415 21.44 49.7855 21.5893 50.3362 21.888C50.8962 22.1867 51.3162 22.616 51.5962 23.176L50.2522 23.96C50.0375 23.6147 49.7668 23.358 49.4402 23.19C49.1228 23.0127 48.7728 22.924 48.3902 22.924C47.7368 22.924 47.1955 23.1387 46.7662 23.568C46.3368 23.988 46.1222 24.5527 46.1222 25.262C46.1222 25.9713 46.3322 26.5407 46.7522 26.97C47.1815 27.39 47.7275 27.6 48.3902 27.6C48.7728 27.6 49.1228 27.516 49.4402 27.348C49.7668 27.1707 50.0375 26.9093 50.2522 26.564L51.5962 27.348C51.3068 27.908 50.8822 28.342 50.3222 28.65C49.7715 28.9487 49.1322 29.098 48.4042 29.098ZM58.9906 23.008H56.3726V29H54.6226V23.008H51.9906V21.524H58.9906V23.008ZM63.046 21.44C64.1473 21.44 64.9873 21.706 65.566 22.238C66.154 22.7607 66.448 23.554 66.448 24.618V29H64.796V28.09C64.5813 28.4167 64.2733 28.6687 63.872 28.846C63.48 29.014 63.004 29.098 62.444 29.098C61.884 29.098 61.394 29.0047 60.974 28.818C60.554 28.622 60.2273 28.356 59.994 28.02C59.77 27.6747 59.658 27.2873 59.658 26.858C59.658 26.186 59.9053 25.6493 60.4 25.248C60.904 24.8373 61.6927 24.632 62.766 24.632H64.698V24.52C64.698 23.9973 64.5393 23.596 64.222 23.316C63.914 23.036 63.452 22.896 62.836 22.896C62.416 22.896 62.0007 22.9613 61.59 23.092C61.1887 23.2227 60.848 23.4047 60.568 23.638L59.882 22.364C60.274 22.0653 60.7453 21.8367 61.296 21.678C61.8467 21.5193 62.43 21.44 63.046 21.44ZM62.808 27.824C63.2467 27.824 63.634 27.726 63.97 27.53C64.3153 27.3247 64.558 27.0353 64.698 26.662V25.794H62.892C61.884 25.794 61.38 26.1253 61.38 26.788C61.38 27.1053 61.506 27.3573 61.758 27.544C62.01 27.7307 62.36 27.824 62.808 27.824ZM74.0315 25.108C74.9555 25.388 75.4175 25.9853 75.4175 26.9C75.4175 27.572 75.1655 28.09 74.6615 28.454C74.1575 28.818 73.4108 29 72.4215 29H68.6135V21.524H72.2675C73.1822 21.524 73.8962 21.692 74.4095 22.028C74.9228 22.364 75.1795 22.84 75.1795 23.456C75.1795 23.8387 75.0768 24.17 74.8715 24.45C74.6755 24.73 74.3955 24.9493 74.0315 25.108ZM70.2795 24.646H72.1135C73.0188 24.646 73.4715 24.3333 73.4715 23.708C73.4715 23.1013 73.0188 22.798 72.1135 22.798H70.2795V24.646ZM72.2815 27.726C73.2428 27.726 73.7235 27.4133 73.7235 26.788C73.7235 26.4613 73.6115 26.2187 73.3875 26.06C73.1635 25.892 72.8135 25.808 72.3375 25.808H70.2795V27.726H72.2815ZM77.2815 21.524H79.0315V26.452L83.1615 21.524H84.7575V29H83.0075V24.072L78.8915 29H77.2815V21.524ZM93.0335 23.008H90.4155V29H88.6655V23.008H86.0335V21.524H93.0335V23.008ZM98.055 23.988C99.007 23.988 99.735 24.2027 100.239 24.632C100.752 25.0613 101.009 25.668 101.009 26.452C101.009 27.2733 100.729 27.908 100.169 28.356C99.609 28.804 98.8203 29.0233 97.803 29.014L94.303 29V21.524H96.053V23.974L98.055 23.988ZM97.649 27.726C98.1623 27.7353 98.5543 27.628 98.825 27.404C99.0956 27.18 99.231 26.8533 99.231 26.424C99.231 26.004 99.1003 25.696 98.839 25.5C98.5776 25.304 98.181 25.2013 97.649 25.192L96.053 25.178V27.712L97.649 27.726ZM109.524 26.004H108.166V29H106.416V21.524H108.166V24.548H109.566L111.778 21.524H113.654L110.938 25.122L113.836 29H111.778L109.524 26.004ZM118.156 29.098C117.4 29.098 116.719 28.9347 116.112 28.608C115.506 28.2813 115.03 27.8287 114.684 27.25C114.348 26.662 114.18 25.9993 114.18 25.262C114.18 24.5247 114.348 23.8667 114.684 23.288C115.03 22.7093 115.506 22.2567 116.112 21.93C116.719 21.6033 117.4 21.44 118.156 21.44C118.922 21.44 119.608 21.6033 120.214 21.93C120.821 22.2567 121.292 22.7093 121.628 23.288C121.974 23.8667 122.146 24.5247 122.146 25.262C122.146 25.9993 121.974 26.662 121.628 27.25C121.292 27.8287 120.821 28.2813 120.214 28.608C119.608 28.9347 118.922 29.098 118.156 29.098ZM118.156 27.6C118.8 27.6 119.332 27.3853 119.752 26.956C120.172 26.5267 120.382 25.962 120.382 25.262C120.382 24.562 120.172 23.9973 119.752 23.568C119.332 23.1387 118.8 22.924 118.156 22.924C117.512 22.924 116.98 23.1387 116.56 23.568C116.15 23.9973 115.944 24.562 115.944 25.262C115.944 25.962 116.15 26.5267 116.56 26.956C116.98 27.3853 117.512 27.6 118.156 27.6ZM131.225 29V24.044L128.705 28.216H127.949L125.471 24.03V29H123.875V21.524H125.709L128.369 26.2L131.155 21.524H132.793L132.807 29H131.225ZM142.505 29V24.044L139.985 28.216H139.229L136.751 24.03V29H135.155V21.524H136.989L139.649 26.2L142.435 21.524H144.073L144.087 29H142.505ZM153.434 25.304C153.434 25.4253 153.424 25.598 153.406 25.822H147.54C147.642 26.3727 147.908 26.8113 148.338 27.138C148.776 27.4553 149.318 27.614 149.962 27.614C150.783 27.614 151.46 27.3433 151.992 26.802L152.93 27.88C152.594 28.2813 152.169 28.5847 151.656 28.79C151.142 28.9953 150.564 29.098 149.92 29.098C149.098 29.098 148.375 28.9347 147.75 28.608C147.124 28.2813 146.639 27.8287 146.294 27.25C145.958 26.662 145.79 25.9993 145.79 25.262C145.79 24.534 145.953 23.8807 146.28 23.302C146.616 22.714 147.078 22.2567 147.666 21.93C148.254 21.6033 148.916 21.44 149.654 21.44C150.382 21.44 151.03 21.6033 151.6 21.93C152.178 22.2473 152.626 22.7 152.944 23.288C153.27 23.8667 153.434 24.5387 153.434 25.304ZM149.654 22.84C149.094 22.84 148.618 23.008 148.226 23.344C147.843 23.6707 147.61 24.1093 147.526 24.66H151.768C151.693 24.1187 151.464 23.68 151.082 23.344C150.699 23.008 150.223 22.84 149.654 22.84ZM155.348 21.524H157.098V24.562H160.864V21.524H162.614V29H160.864V26.046H157.098V29H155.348V21.524ZM170.881 23.008H168.263V29H166.513V23.008H163.881V21.524H170.881V23.008ZM174.937 21.44C176.038 21.44 176.878 21.706 177.457 22.238C178.045 22.7607 178.339 23.554 178.339 24.618V29H176.687V28.09C176.472 28.4167 176.164 28.6687 175.763 28.846C175.371 29.014 174.895 29.098 174.335 29.098C173.775 29.098 173.285 29.0047 172.865 28.818C172.445 28.622 172.118 28.356 171.885 28.02C171.661 27.6747 171.549 27.2873 171.549 26.858C171.549 26.186 171.796 25.6493 172.291 25.248C172.795 24.8373 173.583 24.632 174.657 24.632H176.589V24.52C176.589 23.9973 176.43 23.596 176.113 23.316C175.805 23.036 175.343 22.896 174.727 22.896C174.307 22.896 173.891 22.9613 173.481 23.092C173.079 23.2227 172.739 23.4047 172.459 23.638L171.773 22.364C172.165 22.0653 172.636 21.8367 173.187 21.678C173.737 21.5193 174.321 21.44 174.937 21.44ZM174.699 27.824C175.137 27.824 175.525 27.726 175.861 27.53C176.206 27.3247 176.449 27.0353 176.589 26.662V25.794H174.783C173.775 25.794 173.271 26.1253 173.271 26.788C173.271 27.1053 173.397 27.3573 173.649 27.544C173.901 27.7307 174.251 27.824 174.699 27.824ZM184.648 21.44C185.376 21.44 186.025 21.5987 186.594 21.916C187.173 22.2333 187.625 22.6813 187.952 23.26C188.279 23.8387 188.442 24.506 188.442 25.262C188.442 26.018 188.279 26.69 187.952 27.278C187.625 27.8567 187.173 28.3047 186.594 28.622C186.025 28.9393 185.376 29.098 184.648 29.098C183.64 29.098 182.842 28.762 182.254 28.09V31.716H180.504V21.524H182.17V22.504C182.459 22.1493 182.814 21.8833 183.234 21.706C183.663 21.5287 184.135 21.44 184.648 21.44ZM184.452 27.6C185.096 27.6 185.623 27.3853 186.034 26.956C186.454 26.5267 186.664 25.962 186.664 25.262C186.664 24.562 186.454 23.9973 186.034 23.568C185.623 23.1387 185.096 22.924 184.452 22.924C184.032 22.924 183.654 23.022 183.318 23.218C182.982 23.4047 182.716 23.6753 182.52 24.03C182.324 24.3847 182.226 24.7953 182.226 25.262C182.226 25.7287 182.324 26.1393 182.52 26.494C182.716 26.8487 182.982 27.124 183.318 27.32C183.654 27.5067 184.032 27.6 184.452 27.6ZM190.184 21.524H191.934V26.452L196.064 21.524H197.66V29H195.91V24.072L191.794 29H190.184V21.524ZM200.014 21.524H201.764V26.452L205.894 21.524H207.49V29H205.74V24.072L201.624 29H200.014V21.524ZM203.64 20.642C202.884 20.642 202.305 20.4693 201.904 20.124C201.512 19.7693 201.311 19.256 201.302 18.584H202.464C202.473 18.92 202.576 19.186 202.772 19.382C202.977 19.578 203.262 19.676 203.626 19.676C203.981 19.676 204.261 19.578 204.466 19.382C204.681 19.186 204.793 18.92 204.802 18.584H205.992C205.983 19.256 205.777 19.7693 205.376 20.124C204.975 20.4693 204.396 20.642 203.64 20.642Z" fill="white"/>
</svg>
