<svg width="77" height="22" viewBox="0 0 77 22" fill="none" xmlns="http://www.w3.org/2000/svg">
<rect width="77" height="22" fill="#F34C4C"/>
<path d="M20.182 13.218H16.332L15.573 15H14.099L17.564 7.3H18.972L22.448 15H20.952L20.182 13.218ZM19.709 12.096L18.257 8.73L16.816 12.096H19.709ZM32.3214 11.139C32.3214 12.151 31.9694 12.9503 31.2654 13.537C30.5614 14.1237 29.5604 14.4427 28.2624 14.494V15.308H26.9424V14.494C25.6444 14.428 24.6397 14.1053 23.9284 13.526C23.2244 12.9467 22.8724 12.151 22.8724 11.139C22.8724 10.127 23.2244 9.33133 23.9284 8.752C24.6397 8.16533 25.6444 7.839 26.9424 7.773V6.992H28.2624V7.773C29.5604 7.839 30.5614 8.16533 31.2654 8.752C31.9694 9.33133 32.3214 10.127 32.3214 11.139ZM28.2624 13.372C29.1424 13.306 29.8097 13.086 30.2644 12.712C30.719 12.3307 30.9464 11.8027 30.9464 11.128C30.9464 10.4533 30.7154 9.929 30.2534 9.555C29.7987 9.181 29.135 8.96467 28.2624 8.906V13.372ZM24.2694 11.139C24.2694 11.8063 24.4967 12.327 24.9514 12.701C25.4134 13.075 26.077 13.2987 26.9424 13.372V8.906C25.1604 9.038 24.2694 9.78233 24.2694 11.139ZM33.8341 7.3H35.2421V12.767L39.3781 7.3H40.7091V15H39.3011V9.544L35.1651 15H33.8341V7.3ZM52.768 7.3V15H42.879V7.3H44.287V13.79H47.125V7.3H48.533V13.79H51.36V7.3H52.768ZM60.0355 13.218H56.1855L55.4265 15H53.9525L57.4175 7.3H58.8255L62.3015 15H60.8055L60.0355 13.218ZM59.5625 12.096L58.1105 8.73L56.6695 12.096H59.5625Z" fill="white"/>
</svg>
