<svg width="68" height="22" viewBox="0 0 68 22" fill="none" xmlns="http://www.w3.org/2000/svg">
<rect width="68" height="22" fill="#609FFF"/>
<path d="M18.62 15.11C17.8427 15.11 17.1387 14.9413 16.508 14.604C15.8847 14.2593 15.3933 13.7863 15.034 13.185C14.682 12.5837 14.506 11.9053 14.506 11.15C14.506 10.3947 14.6857 9.71633 15.045 9.115C15.4043 8.51367 15.8957 8.04433 16.519 7.707C17.1497 7.36233 17.8537 7.19 18.631 7.19C19.2617 7.19 19.8373 7.3 20.358 7.52C20.8787 7.74 21.3187 8.059 21.678 8.477L20.754 9.346C20.1967 8.74467 19.511 8.444 18.697 8.444C18.169 8.444 17.696 8.56133 17.278 8.796C16.86 9.02333 16.5337 9.34233 16.299 9.753C16.0643 10.1637 15.947 10.6293 15.947 11.15C15.947 11.6707 16.0643 12.1363 16.299 12.547C16.5337 12.9577 16.86 13.2803 17.278 13.515C17.696 13.7423 18.169 13.856 18.697 13.856C19.511 13.856 20.1967 13.5517 20.754 12.943L21.678 13.823C21.3187 14.241 20.875 14.56 20.347 14.78C19.8263 15 19.2507 15.11 18.62 15.11ZM29.8257 7.3V15H28.4177V8.51H24.4247V15H23.0167V7.3H29.8257ZM35.5609 15.11C34.7763 15.11 34.0686 14.9413 33.4379 14.604C32.8073 14.2593 32.3123 13.7863 31.9529 13.185C31.5936 12.5763 31.4139 11.898 31.4139 11.15C31.4139 10.402 31.5936 9.72733 31.9529 9.126C32.3123 8.51733 32.8073 8.04433 33.4379 7.707C34.0686 7.36233 34.7763 7.19 35.5609 7.19C36.3456 7.19 37.0533 7.36233 37.6839 7.707C38.3146 8.04433 38.8096 8.51367 39.1689 9.115C39.5283 9.71633 39.7079 10.3947 39.7079 11.15C39.7079 11.9053 39.5283 12.5837 39.1689 13.185C38.8096 13.7863 38.3146 14.2593 37.6839 14.604C37.0533 14.9413 36.3456 15.11 35.5609 15.11ZM35.5609 13.856C36.0743 13.856 36.5363 13.7423 36.9469 13.515C37.3576 13.2803 37.6803 12.9577 37.9149 12.547C38.1496 12.129 38.2669 11.6633 38.2669 11.15C38.2669 10.6367 38.1496 10.1747 37.9149 9.764C37.6803 9.346 37.3576 9.02333 36.9469 8.796C36.5363 8.56133 36.0743 8.444 35.5609 8.444C35.0476 8.444 34.5856 8.56133 34.1749 8.796C33.7643 9.02333 33.4416 9.346 33.2069 9.764C32.9723 10.1747 32.8549 10.6367 32.8549 11.15C32.8549 11.6633 32.9723 12.129 33.2069 12.547C33.4416 12.9577 33.7643 13.2803 34.1749 13.515C34.5856 13.7423 35.0476 13.856 35.5609 13.856ZM44.4569 7.3C45.1243 7.3 45.7036 7.41 46.1949 7.63C46.6936 7.85 47.0749 8.16533 47.3389 8.576C47.6029 8.98667 47.7349 9.47433 47.7349 10.039C47.7349 10.5963 47.6029 11.084 47.3389 11.502C47.0749 11.9127 46.6936 12.228 46.1949 12.448C45.7036 12.668 45.1243 12.778 44.4569 12.778H42.7189V15H41.2889V7.3H44.4569ZM44.3909 11.568C45.0143 11.568 45.4873 11.436 45.8099 11.172C46.1326 10.908 46.2939 10.5303 46.2939 10.039C46.2939 9.54767 46.1326 9.17 45.8099 8.906C45.4873 8.642 45.0143 8.51 44.3909 8.51H42.7189V11.568H44.3909ZM54.4502 8.51H51.8982V15H50.4792V8.51H47.9382V7.3H54.4502V8.51Z" fill="white"/>
</svg>
